<svg xmlns="http://www.w3.org/2000/svg" xmlns:xlink="http://www.w3.org/1999/xlink" width="700" zoomAndPan="magnify" viewBox="0 0 525 525.000007" height="700" preserveAspectRatio="xMidYMid meet" version="1.0"><defs><clipPath id="f989934ac6"><path d="M 0.5 0 L 524.5 0 L 524.5 524 L 0.5 524 Z M 0.5 0 " clip-rule="nonzero"/></clipPath><clipPath id="e1ca009fe3"><path d="M 262.5 0 C 117.800781 0 0.5 117.300781 0.5 262 C 0.5 406.699219 117.800781 524 262.5 524 C 407.199219 524 524.5 406.699219 524.5 262 C 524.5 117.300781 407.199219 0 262.5 0 Z M 262.5 0 " clip-rule="nonzero"/></clipPath></defs><g clip-path="url(#f989934ac6)"><g clip-path="url(#e1ca009fe3)"><path fill="#bee6ce" d="M 0.5 0 L 524.5 0 L 524.5 524 L 0.5 524 Z M 0.5 0 " fill-opacity="1" fill-rule="nonzero"/></g></g><path fill="#ffffff" d="M 331.902344 239.804688 C 316.351562 224.25 299.164062 207.0625 283.613281 191.511719 C 250.652344 158.550781 190.6875 162.378906 149.988281 203.082031 C 117.464844 235.605469 77.546875 275.519531 45.023438 308.042969 C 4.304688 348.761719 0.492188 408.710938 33.453125 441.667969 C 49.003906 457.21875 66.195312 474.410156 81.746094 489.960938 C 114.703125 522.921875 174.652344 519.109375 215.371094 478.390625 C 238.445312 455.3125 265.25 428.507812 290.5 403.257812 C 297.023438 396.738281 297.023438 386.136719 290.5 379.613281 C 283.980469 373.074219 273.378906 373.074219 266.855469 379.613281 C 241.605469 404.847656 214.800781 431.667969 191.726562 454.746094 C 165.289062 481.183594 126.792969 487.722656 105.390625 466.316406 C 105.390625 466.316406 57.097656 418.023438 57.097656 418.023438 C 35.695312 396.621094 42.230469 358.125 68.667969 331.6875 C 101.191406 299.183594 141.109375 259.25 173.632812 226.742188 C 200.070312 200.289062 238.5625 193.75 259.964844 215.15625 C 259.964844 215.15625 308.257812 263.449219 308.257812 263.449219 C 314.78125 269.96875 325.382812 269.96875 331.902344 263.449219 C 338.425781 256.925781 338.425781 246.324219 331.902344 239.804688 Z M 192.007812 283.113281 C 207.558594 298.664062 224.75 315.855469 240.300781 331.40625 C 273.261719 364.363281 333.226562 360.535156 373.925781 319.832031 C 406.449219 287.308594 446.363281 247.394531 478.890625 214.871094 C 519.605469 174.152344 523.417969 114.203125 490.460938 81.246094 C 474.910156 65.695312 457.71875 48.503906 442.167969 32.953125 C 409.210938 -0.00390625 349.261719 3.808594 308.542969 44.523438 C 285.46875 67.601562 258.664062 94.40625 233.414062 119.65625 C 226.890625 126.179688 226.890625 136.78125 233.414062 143.300781 C 239.933594 149.839844 250.535156 149.839844 257.058594 143.300781 C 282.308594 118.066406 309.113281 91.246094 332.1875 68.167969 C 358.625 41.734375 397.121094 35.195312 418.523438 56.597656 C 418.523438 56.597656 466.816406 104.890625 466.816406 104.890625 C 488.21875 126.292969 481.679688 164.789062 455.246094 191.226562 C 422.71875 223.734375 382.804688 263.664062 350.28125 296.171875 C 323.84375 322.625 285.351562 329.164062 263.945312 307.761719 C 263.945312 307.761719 215.652344 259.46875 215.652344 259.46875 C 209.132812 252.945312 198.53125 252.945312 192.007812 259.46875 C 185.488281 265.988281 185.488281 276.589844 192.007812 283.113281 Z M 192.007812 283.113281 " fill-opacity="1" fill-rule="evenodd"/></svg>